%TF.GenerationSoftware,KiCad,Pcbnew,7.0.9-7.0.9~ubuntu22.04.1*%
%TF.CreationDate,2023-11-22T13:15:59-05:00*%
%TF.ProjectId,MWIRDetector,4d574952-4465-4746-9563-746f722e6b69,0.8.X*%
%TF.SameCoordinates,PX8f0d198PY5f5e100*%
%TF.FileFunction,Profile,NP*%
%FSLAX46Y46*%
G04 Gerber Fmt 4.6, Leading zero omitted, Abs format (unit mm)*
G04 Created by KiCad (PCBNEW 7.0.9-7.0.9~ubuntu22.04.1) date 2023-11-22 13:15:59*
%MOMM*%
%LPD*%
G01*
G04 APERTURE LIST*
%TA.AperFunction,Profile*%
%ADD10C,0.200000*%
%TD*%
G04 APERTURE END LIST*
D10*
%TO.C,X1*%
X121500000Y-59500000D02*
X121500000Y-59500000D01*
X121500000Y-59500000D02*
X121500000Y-59500000D01*
X121500000Y-66000000D02*
X121500000Y-59500000D01*
X121500000Y-66000000D02*
X121500000Y-66000000D01*
X121500000Y-66000000D02*
X121500000Y-66000000D01*
X121500000Y-134000000D02*
X121500000Y-134000000D01*
X121500000Y-134000000D02*
X121500000Y-134000000D01*
X121500000Y-140500000D02*
X121500000Y-134000000D01*
X121500000Y-140500000D02*
X121500000Y-140500000D01*
X121500000Y-140500000D02*
X121500000Y-140500000D01*
X122000000Y-66500000D02*
X122000000Y-66500000D01*
X122000000Y-66500000D02*
X122000000Y-66500000D01*
X122000000Y-133500000D02*
X122000000Y-133500000D01*
X122000000Y-133500000D02*
X122000000Y-133500000D01*
X122000000Y-133500000D02*
X123000000Y-133500000D01*
X123000000Y-66500000D02*
X122000000Y-66500000D01*
X123000000Y-66500000D02*
X123000000Y-66500000D01*
X123000000Y-66500000D02*
X123000000Y-66500000D01*
X123000000Y-133500000D02*
X123000000Y-133500000D01*
X123000000Y-133500000D02*
X123000000Y-133500000D01*
X123500000Y-67000000D02*
X123500000Y-67000000D01*
X123500000Y-67000000D02*
X123500000Y-67000000D01*
X123500000Y-133000000D02*
X123500000Y-67000000D01*
X123500000Y-133000000D02*
X123500000Y-133000000D01*
X123500000Y-133000000D02*
X123500000Y-133000000D01*
X124500000Y-56500000D02*
X124500000Y-56500000D01*
X124500000Y-56500000D02*
X124500000Y-56500000D01*
X124500000Y-56500000D02*
X175500000Y-56500000D01*
X124500000Y-143500000D02*
X124500000Y-143500000D01*
X124500000Y-143500000D02*
X124500000Y-143500000D01*
X175500000Y-56500000D02*
X175500000Y-56500000D01*
X175500000Y-56500000D02*
X175500000Y-56500000D01*
X175500000Y-143500000D02*
X124500000Y-143500000D01*
X175500000Y-143500000D02*
X175500000Y-143500000D01*
X175500000Y-143500000D02*
X175500000Y-143500000D01*
X176500000Y-67000000D02*
X176500000Y-67000000D01*
X176500000Y-67000000D02*
X176500000Y-67000000D01*
X176500000Y-67000000D02*
X176500000Y-133000000D01*
X176500000Y-133000000D02*
X176500000Y-133000000D01*
X176500000Y-133000000D02*
X176500000Y-133000000D01*
X177000000Y-66500000D02*
X177000000Y-66500000D01*
X177000000Y-66500000D02*
X177000000Y-66500000D01*
X177000000Y-133500000D02*
X177000000Y-133500000D01*
X177000000Y-133500000D02*
X177000000Y-133500000D01*
X177000000Y-133500000D02*
X178000000Y-133500000D01*
X178000000Y-66500000D02*
X177000000Y-66500000D01*
X178000000Y-66500000D02*
X178000000Y-66500000D01*
X178000000Y-66500000D02*
X178000000Y-66500000D01*
X178000000Y-133500000D02*
X178000000Y-133500000D01*
X178000000Y-133500000D02*
X178000000Y-133500000D01*
X178500000Y-59500000D02*
X178500000Y-59500000D01*
X178500000Y-59500000D02*
X178500000Y-59500000D01*
X178500000Y-59500000D02*
X178500000Y-66000000D01*
X178500000Y-66000000D02*
X178500000Y-66000000D01*
X178500000Y-66000000D02*
X178500000Y-66000000D01*
X178500000Y-134000000D02*
X178500000Y-134000000D01*
X178500000Y-134000000D02*
X178500000Y-134000000D01*
X178500000Y-134000000D02*
X178500000Y-140500000D01*
X178500000Y-140500000D02*
X178500000Y-140500000D01*
X178500000Y-140500000D02*
X178500000Y-140500000D01*
X124500000Y-56500000D02*
G75*
G03*
X121500000Y-59500000I1J-3000001D01*
G01*
X122000000Y-133500000D02*
G75*
G03*
X121500000Y-134000000I1J-500001D01*
G01*
X121500000Y-66000000D02*
G75*
G03*
X122000000Y-66500000I500001J1D01*
G01*
X123500000Y-67000000D02*
G75*
G03*
X123000000Y-66500000I-500001J-1D01*
G01*
X123000000Y-133500000D02*
G75*
G03*
X123500000Y-133000000I-1J500001D01*
G01*
X121500000Y-140500000D02*
G75*
G03*
X124500000Y-143500000I3000001J1D01*
G01*
X178500000Y-59500000D02*
G75*
G03*
X175500000Y-56500000I-3000000J0D01*
G01*
X177000000Y-66500000D02*
G75*
G03*
X176500000Y-67000000I0J-500000D01*
G01*
X176500000Y-133000000D02*
G75*
G03*
X177000000Y-133500000I500000J0D01*
G01*
X178500000Y-134000000D02*
G75*
G03*
X178000000Y-133500000I-500000J0D01*
G01*
X178000000Y-66500000D02*
G75*
G03*
X178500000Y-66000000I0J500000D01*
G01*
X175500000Y-143500000D02*
G75*
G03*
X178500000Y-140500000I0J3000000D01*
G01*
%TD*%
M02*
