<?xml version="1.0" encoding="UTF-8"?>
<svg xmlns="http://www.w3.org/2000/svg" xmlns:xlink="http://www.w3.org/1999/xlink" width="132pt" height="196pt" viewBox="0 0 132 196" version="1.1">
<g id="surface1">
<path style="fill:none;stroke-width:0.00787402;stroke-linecap:round;stroke-linejoin:miter;stroke:rgb(100%,100%,0%);stroke-opacity:1;stroke-miterlimit:10;" d="M 4.783477 -2.342519 L 4.783477 -2.342519 " transform="matrix(54,0,0,-54,-252.694488,-114.691339)"/>
<path style="fill:none;stroke-width:0.00787402;stroke-linecap:round;stroke-linejoin:miter;stroke:rgb(100%,100%,0%);stroke-opacity:1;stroke-miterlimit:10;" d="M 4.783477 -2.342519 L 4.783477 -2.342519 " transform="matrix(54,0,0,-54,-252.694488,-114.691339)"/>
<path style="fill:none;stroke-width:0.00787402;stroke-linecap:round;stroke-linejoin:miter;stroke:rgb(100%,100%,0%);stroke-opacity:1;stroke-miterlimit:10;" d="M 4.783477 -2.598451 L 4.783477 -2.342519 " transform="matrix(54,0,0,-54,-252.694488,-114.691339)"/>
<path style="fill:none;stroke-width:0.00787402;stroke-linecap:round;stroke-linejoin:miter;stroke:rgb(100%,100%,0%);stroke-opacity:1;stroke-miterlimit:10;" d="M 4.783477 -2.598451 L 4.783477 -2.598451 " transform="matrix(54,0,0,-54,-252.694488,-114.691339)"/>
<path style="fill:none;stroke-width:0.00787402;stroke-linecap:round;stroke-linejoin:miter;stroke:rgb(100%,100%,0%);stroke-opacity:1;stroke-miterlimit:10;" d="M 4.783477 -2.598451 L 4.783477 -2.598451 " transform="matrix(54,0,0,-54,-252.694488,-114.691339)"/>
<path style="fill:none;stroke-width:0.00787402;stroke-linecap:round;stroke-linejoin:miter;stroke:rgb(100%,100%,0%);stroke-opacity:1;stroke-miterlimit:10;" d="M 4.783477 -5.275606 L 4.783477 -5.275606 " transform="matrix(54,0,0,-54,-252.694488,-114.691339)"/>
<path style="fill:none;stroke-width:0.00787402;stroke-linecap:round;stroke-linejoin:miter;stroke:rgb(100%,100%,0%);stroke-opacity:1;stroke-miterlimit:10;" d="M 4.783477 -5.275606 L 4.783477 -5.275606 " transform="matrix(54,0,0,-54,-252.694488,-114.691339)"/>
<path style="fill:none;stroke-width:0.00787402;stroke-linecap:round;stroke-linejoin:miter;stroke:rgb(100%,100%,0%);stroke-opacity:1;stroke-miterlimit:10;" d="M 4.783477 -5.531466 L 4.783477 -5.275606 " transform="matrix(54,0,0,-54,-252.694488,-114.691339)"/>
<path style="fill:none;stroke-width:0.00787402;stroke-linecap:round;stroke-linejoin:miter;stroke:rgb(100%,100%,0%);stroke-opacity:1;stroke-miterlimit:10;" d="M 4.783477 -5.531466 L 4.783477 -5.531466 " transform="matrix(54,0,0,-54,-252.694488,-114.691339)"/>
<path style="fill:none;stroke-width:0.00787402;stroke-linecap:round;stroke-linejoin:miter;stroke:rgb(100%,100%,0%);stroke-opacity:1;stroke-miterlimit:10;" d="M 4.783477 -5.531466 L 4.783477 -5.531466 " transform="matrix(54,0,0,-54,-252.694488,-114.691339)"/>
<path style="fill:none;stroke-width:0.00787402;stroke-linecap:round;stroke-linejoin:miter;stroke:rgb(100%,100%,0%);stroke-opacity:1;stroke-miterlimit:10;" d="M 4.803153 -2.618127 L 4.803153 -2.618127 " transform="matrix(54,0,0,-54,-252.694488,-114.691339)"/>
<path style="fill:none;stroke-width:0.00787402;stroke-linecap:round;stroke-linejoin:miter;stroke:rgb(100%,100%,0%);stroke-opacity:1;stroke-miterlimit:10;" d="M 4.803153 -2.618127 L 4.803153 -2.618127 " transform="matrix(54,0,0,-54,-252.694488,-114.691339)"/>
<path style="fill:none;stroke-width:0.00787402;stroke-linecap:round;stroke-linejoin:miter;stroke:rgb(100%,100%,0%);stroke-opacity:1;stroke-miterlimit:10;" d="M 4.803153 -5.25593 L 4.803153 -5.25593 " transform="matrix(54,0,0,-54,-252.694488,-114.691339)"/>
<path style="fill:none;stroke-width:0.00787402;stroke-linecap:round;stroke-linejoin:miter;stroke:rgb(100%,100%,0%);stroke-opacity:1;stroke-miterlimit:10;" d="M 4.803153 -5.25593 L 4.803153 -5.25593 " transform="matrix(54,0,0,-54,-252.694488,-114.691339)"/>
<path style="fill:none;stroke-width:0.00787402;stroke-linecap:round;stroke-linejoin:miter;stroke:rgb(100%,100%,0%);stroke-opacity:1;stroke-miterlimit:10;" d="M 4.803153 -5.25593 L 4.842505 -5.25593 " transform="matrix(54,0,0,-54,-252.694488,-114.691339)"/>
<path style="fill:none;stroke-width:0.00787402;stroke-linecap:round;stroke-linejoin:miter;stroke:rgb(100%,100%,0%);stroke-opacity:1;stroke-miterlimit:10;" d="M 4.842505 -2.618127 L 4.803153 -2.618127 " transform="matrix(54,0,0,-54,-252.694488,-114.691339)"/>
<path style="fill:none;stroke-width:0.00787402;stroke-linecap:round;stroke-linejoin:miter;stroke:rgb(100%,100%,0%);stroke-opacity:1;stroke-miterlimit:10;" d="M 4.842505 -2.618127 L 4.842505 -2.618127 " transform="matrix(54,0,0,-54,-252.694488,-114.691339)"/>
<path style="fill:none;stroke-width:0.00787402;stroke-linecap:round;stroke-linejoin:miter;stroke:rgb(100%,100%,0%);stroke-opacity:1;stroke-miterlimit:10;" d="M 4.842505 -2.618127 L 4.842505 -2.618127 " transform="matrix(54,0,0,-54,-252.694488,-114.691339)"/>
<path style="fill:none;stroke-width:0.00787402;stroke-linecap:round;stroke-linejoin:miter;stroke:rgb(100%,100%,0%);stroke-opacity:1;stroke-miterlimit:10;" d="M 4.842505 -5.25593 L 4.842505 -5.25593 " transform="matrix(54,0,0,-54,-252.694488,-114.691339)"/>
<path style="fill:none;stroke-width:0.00787402;stroke-linecap:round;stroke-linejoin:miter;stroke:rgb(100%,100%,0%);stroke-opacity:1;stroke-miterlimit:10;" d="M 4.842505 -5.25593 L 4.842505 -5.25593 " transform="matrix(54,0,0,-54,-252.694488,-114.691339)"/>
<path style="fill:none;stroke-width:0.00787402;stroke-linecap:round;stroke-linejoin:miter;stroke:rgb(100%,100%,0%);stroke-opacity:1;stroke-miterlimit:10;" d="M 4.862181 -2.637803 L 4.862181 -2.637803 " transform="matrix(54,0,0,-54,-252.694488,-114.691339)"/>
<path style="fill:none;stroke-width:0.00787402;stroke-linecap:round;stroke-linejoin:miter;stroke:rgb(100%,100%,0%);stroke-opacity:1;stroke-miterlimit:10;" d="M 4.862181 -2.637803 L 4.862181 -2.637803 " transform="matrix(54,0,0,-54,-252.694488,-114.691339)"/>
<path style="fill:none;stroke-width:0.00787402;stroke-linecap:round;stroke-linejoin:miter;stroke:rgb(100%,100%,0%);stroke-opacity:1;stroke-miterlimit:10;" d="M 4.862181 -5.236255 L 4.862181 -2.637803 " transform="matrix(54,0,0,-54,-252.694488,-114.691339)"/>
<path style="fill:none;stroke-width:0.00787402;stroke-linecap:round;stroke-linejoin:miter;stroke:rgb(100%,100%,0%);stroke-opacity:1;stroke-miterlimit:10;" d="M 4.862181 -5.236255 L 4.862181 -5.236255 " transform="matrix(54,0,0,-54,-252.694488,-114.691339)"/>
<path style="fill:none;stroke-width:0.00787402;stroke-linecap:round;stroke-linejoin:miter;stroke:rgb(100%,100%,0%);stroke-opacity:1;stroke-miterlimit:10;" d="M 4.862181 -5.236255 L 4.862181 -5.236255 " transform="matrix(54,0,0,-54,-252.694488,-114.691339)"/>
<path style="fill:none;stroke-width:0.00787402;stroke-linecap:round;stroke-linejoin:miter;stroke:rgb(100%,100%,0%);stroke-opacity:1;stroke-miterlimit:10;" d="M 4.901605 -2.224391 L 4.901605 -2.224391 " transform="matrix(54,0,0,-54,-252.694488,-114.691339)"/>
<path style="fill:none;stroke-width:0.00787402;stroke-linecap:round;stroke-linejoin:miter;stroke:rgb(100%,100%,0%);stroke-opacity:1;stroke-miterlimit:10;" d="M 4.901605 -2.224391 L 4.901605 -2.224391 " transform="matrix(54,0,0,-54,-252.694488,-114.691339)"/>
<path style="fill:none;stroke-width:0.00787402;stroke-linecap:round;stroke-linejoin:miter;stroke:rgb(100%,100%,0%);stroke-opacity:1;stroke-miterlimit:10;" d="M 4.901605 -2.224391 L 6.909418 -2.224391 " transform="matrix(54,0,0,-54,-252.694488,-114.691339)"/>
<path style="fill:none;stroke-width:0.00787402;stroke-linecap:round;stroke-linejoin:miter;stroke:rgb(100%,100%,0%);stroke-opacity:1;stroke-miterlimit:10;" d="M 4.901605 -5.649594 L 4.901605 -5.649594 " transform="matrix(54,0,0,-54,-252.694488,-114.691339)"/>
<path style="fill:none;stroke-width:0.00787402;stroke-linecap:round;stroke-linejoin:miter;stroke:rgb(100%,100%,0%);stroke-opacity:1;stroke-miterlimit:10;" d="M 4.901605 -5.649594 L 4.901605 -5.649594 " transform="matrix(54,0,0,-54,-252.694488,-114.691339)"/>
<path style="fill:none;stroke-width:0.00787402;stroke-linecap:round;stroke-linejoin:miter;stroke:rgb(100%,100%,0%);stroke-opacity:1;stroke-miterlimit:10;" d="M 6.909418 -2.224391 L 6.909418 -2.224391 " transform="matrix(54,0,0,-54,-252.694488,-114.691339)"/>
<path style="fill:none;stroke-width:0.00787402;stroke-linecap:round;stroke-linejoin:miter;stroke:rgb(100%,100%,0%);stroke-opacity:1;stroke-miterlimit:10;" d="M 6.909418 -2.224391 L 6.909418 -2.224391 " transform="matrix(54,0,0,-54,-252.694488,-114.691339)"/>
<path style="fill:none;stroke-width:0.00787402;stroke-linecap:round;stroke-linejoin:miter;stroke:rgb(100%,100%,0%);stroke-opacity:1;stroke-miterlimit:10;" d="M 6.909418 -5.649594 L 4.901605 -5.649594 " transform="matrix(54,0,0,-54,-252.694488,-114.691339)"/>
<path style="fill:none;stroke-width:0.00787402;stroke-linecap:round;stroke-linejoin:miter;stroke:rgb(100%,100%,0%);stroke-opacity:1;stroke-miterlimit:10;" d="M 6.909418 -5.649594 L 6.909418 -5.649594 " transform="matrix(54,0,0,-54,-252.694488,-114.691339)"/>
<path style="fill:none;stroke-width:0.00787402;stroke-linecap:round;stroke-linejoin:miter;stroke:rgb(100%,100%,0%);stroke-opacity:1;stroke-miterlimit:10;" d="M 6.909418 -5.649594 L 6.909418 -5.649594 " transform="matrix(54,0,0,-54,-252.694488,-114.691339)"/>
<path style="fill:none;stroke-width:0.00787402;stroke-linecap:round;stroke-linejoin:miter;stroke:rgb(100%,100%,0%);stroke-opacity:1;stroke-miterlimit:10;" d="M 6.948842 -2.637803 L 6.948842 -2.637803 " transform="matrix(54,0,0,-54,-252.694488,-114.691339)"/>
<path style="fill:none;stroke-width:0.00787402;stroke-linecap:round;stroke-linejoin:miter;stroke:rgb(100%,100%,0%);stroke-opacity:1;stroke-miterlimit:10;" d="M 6.948842 -2.637803 L 6.948842 -2.637803 " transform="matrix(54,0,0,-54,-252.694488,-114.691339)"/>
<path style="fill:none;stroke-width:0.00787402;stroke-linecap:round;stroke-linejoin:miter;stroke:rgb(100%,100%,0%);stroke-opacity:1;stroke-miterlimit:10;" d="M 6.948842 -2.637803 L 6.948842 -5.236255 " transform="matrix(54,0,0,-54,-252.694488,-114.691339)"/>
<path style="fill:none;stroke-width:0.00787402;stroke-linecap:round;stroke-linejoin:miter;stroke:rgb(100%,100%,0%);stroke-opacity:1;stroke-miterlimit:10;" d="M 6.948842 -5.236255 L 6.948842 -5.236255 " transform="matrix(54,0,0,-54,-252.694488,-114.691339)"/>
<path style="fill:none;stroke-width:0.00787402;stroke-linecap:round;stroke-linejoin:miter;stroke:rgb(100%,100%,0%);stroke-opacity:1;stroke-miterlimit:10;" d="M 6.948842 -5.236255 L 6.948842 -5.236255 " transform="matrix(54,0,0,-54,-252.694488,-114.691339)"/>
<path style="fill:none;stroke-width:0.00787402;stroke-linecap:round;stroke-linejoin:miter;stroke:rgb(100%,100%,0%);stroke-opacity:1;stroke-miterlimit:10;" d="M 6.968518 -2.618127 L 6.968518 -2.618127 " transform="matrix(54,0,0,-54,-252.694488,-114.691339)"/>
<path style="fill:none;stroke-width:0.00787402;stroke-linecap:round;stroke-linejoin:miter;stroke:rgb(100%,100%,0%);stroke-opacity:1;stroke-miterlimit:10;" d="M 6.968518 -2.618127 L 6.968518 -2.618127 " transform="matrix(54,0,0,-54,-252.694488,-114.691339)"/>
<path style="fill:none;stroke-width:0.00787402;stroke-linecap:round;stroke-linejoin:miter;stroke:rgb(100%,100%,0%);stroke-opacity:1;stroke-miterlimit:10;" d="M 6.968518 -5.25593 L 6.968518 -5.25593 " transform="matrix(54,0,0,-54,-252.694488,-114.691339)"/>
<path style="fill:none;stroke-width:0.00787402;stroke-linecap:round;stroke-linejoin:miter;stroke:rgb(100%,100%,0%);stroke-opacity:1;stroke-miterlimit:10;" d="M 6.968518 -5.25593 L 6.968518 -5.25593 " transform="matrix(54,0,0,-54,-252.694488,-114.691339)"/>
<path style="fill:none;stroke-width:0.00787402;stroke-linecap:round;stroke-linejoin:miter;stroke:rgb(100%,100%,0%);stroke-opacity:1;stroke-miterlimit:10;" d="M 6.968518 -5.25593 L 7.00787 -5.25593 " transform="matrix(54,0,0,-54,-252.694488,-114.691339)"/>
<path style="fill:none;stroke-width:0.00787402;stroke-linecap:round;stroke-linejoin:miter;stroke:rgb(100%,100%,0%);stroke-opacity:1;stroke-miterlimit:10;" d="M 7.00787 -2.618127 L 6.968518 -2.618127 " transform="matrix(54,0,0,-54,-252.694488,-114.691339)"/>
<path style="fill:none;stroke-width:0.00787402;stroke-linecap:round;stroke-linejoin:miter;stroke:rgb(100%,100%,0%);stroke-opacity:1;stroke-miterlimit:10;" d="M 7.00787 -2.618127 L 7.00787 -2.618127 " transform="matrix(54,0,0,-54,-252.694488,-114.691339)"/>
<path style="fill:none;stroke-width:0.00787402;stroke-linecap:round;stroke-linejoin:miter;stroke:rgb(100%,100%,0%);stroke-opacity:1;stroke-miterlimit:10;" d="M 7.00787 -2.618127 L 7.00787 -2.618127 " transform="matrix(54,0,0,-54,-252.694488,-114.691339)"/>
<path style="fill:none;stroke-width:0.00787402;stroke-linecap:round;stroke-linejoin:miter;stroke:rgb(100%,100%,0%);stroke-opacity:1;stroke-miterlimit:10;" d="M 7.00787 -5.25593 L 7.00787 -5.25593 " transform="matrix(54,0,0,-54,-252.694488,-114.691339)"/>
<path style="fill:none;stroke-width:0.00787402;stroke-linecap:round;stroke-linejoin:miter;stroke:rgb(100%,100%,0%);stroke-opacity:1;stroke-miterlimit:10;" d="M 7.00787 -5.25593 L 7.00787 -5.25593 " transform="matrix(54,0,0,-54,-252.694488,-114.691339)"/>
<path style="fill:none;stroke-width:0.00787402;stroke-linecap:round;stroke-linejoin:miter;stroke:rgb(100%,100%,0%);stroke-opacity:1;stroke-miterlimit:10;" d="M 7.027545 -2.342519 L 7.027545 -2.342519 " transform="matrix(54,0,0,-54,-252.694488,-114.691339)"/>
<path style="fill:none;stroke-width:0.00787402;stroke-linecap:round;stroke-linejoin:miter;stroke:rgb(100%,100%,0%);stroke-opacity:1;stroke-miterlimit:10;" d="M 7.027545 -2.342519 L 7.027545 -2.342519 " transform="matrix(54,0,0,-54,-252.694488,-114.691339)"/>
<path style="fill:none;stroke-width:0.00787402;stroke-linecap:round;stroke-linejoin:miter;stroke:rgb(100%,100%,0%);stroke-opacity:1;stroke-miterlimit:10;" d="M 7.027545 -2.342519 L 7.027545 -2.598451 " transform="matrix(54,0,0,-54,-252.694488,-114.691339)"/>
<path style="fill:none;stroke-width:0.00787402;stroke-linecap:round;stroke-linejoin:miter;stroke:rgb(100%,100%,0%);stroke-opacity:1;stroke-miterlimit:10;" d="M 7.027545 -2.598451 L 7.027545 -2.598451 " transform="matrix(54,0,0,-54,-252.694488,-114.691339)"/>
<path style="fill:none;stroke-width:0.00787402;stroke-linecap:round;stroke-linejoin:miter;stroke:rgb(100%,100%,0%);stroke-opacity:1;stroke-miterlimit:10;" d="M 7.027545 -2.598451 L 7.027545 -2.598451 " transform="matrix(54,0,0,-54,-252.694488,-114.691339)"/>
<path style="fill:none;stroke-width:0.00787402;stroke-linecap:round;stroke-linejoin:miter;stroke:rgb(100%,100%,0%);stroke-opacity:1;stroke-miterlimit:10;" d="M 7.027545 -5.275606 L 7.027545 -5.275606 " transform="matrix(54,0,0,-54,-252.694488,-114.691339)"/>
<path style="fill:none;stroke-width:0.00787402;stroke-linecap:round;stroke-linejoin:miter;stroke:rgb(100%,100%,0%);stroke-opacity:1;stroke-miterlimit:10;" d="M 7.027545 -5.275606 L 7.027545 -5.275606 " transform="matrix(54,0,0,-54,-252.694488,-114.691339)"/>
<path style="fill:none;stroke-width:0.00787402;stroke-linecap:round;stroke-linejoin:miter;stroke:rgb(100%,100%,0%);stroke-opacity:1;stroke-miterlimit:10;" d="M 7.027545 -5.275606 L 7.027545 -5.531466 " transform="matrix(54,0,0,-54,-252.694488,-114.691339)"/>
<path style="fill:none;stroke-width:0.00787402;stroke-linecap:round;stroke-linejoin:miter;stroke:rgb(100%,100%,0%);stroke-opacity:1;stroke-miterlimit:10;" d="M 7.027545 -5.531466 L 7.027545 -5.531466 " transform="matrix(54,0,0,-54,-252.694488,-114.691339)"/>
<path style="fill:none;stroke-width:0.00787402;stroke-linecap:round;stroke-linejoin:miter;stroke:rgb(100%,100%,0%);stroke-opacity:1;stroke-miterlimit:10;" d="M 7.027545 -5.531466 L 7.027545 -5.531466 " transform="matrix(54,0,0,-54,-252.694488,-114.691339)"/>
<path style="fill:none;stroke-width:0.00787402;stroke-linecap:round;stroke-linejoin:miter;stroke:rgb(100%,100%,0%);stroke-opacity:1;stroke-miterlimit:10;" d="M 4.901605 -2.224391 C 4.836356 -2.224391 4.783477 -2.27727 4.783477 -2.342519 " transform="matrix(54,0,0,-54,-252.694488,-114.691339)"/>
<path style="fill:none;stroke-width:0.00787402;stroke-linecap:round;stroke-linejoin:miter;stroke:rgb(100%,100%,0%);stroke-opacity:1;stroke-miterlimit:10;" d="M 4.803153 -5.25593 C 4.792302 -5.25593 4.783477 -5.264683 4.783477 -5.275606 " transform="matrix(54,0,0,-54,-252.694488,-114.691339)"/>
<path style="fill:none;stroke-width:0.00787402;stroke-linecap:round;stroke-linejoin:miter;stroke:rgb(100%,100%,0%);stroke-opacity:1;stroke-miterlimit:10;" d="M 4.783477 -2.598451 C 4.783477 -2.609301 4.792302 -2.618127 4.803153 -2.618127 " transform="matrix(54,0,0,-54,-252.694488,-114.691339)"/>
<path style="fill:none;stroke-width:0.00787402;stroke-linecap:round;stroke-linejoin:miter;stroke:rgb(100%,100%,0%);stroke-opacity:1;stroke-miterlimit:10;" d="M 4.862181 -2.637803 C 4.862181 -2.626952 4.853356 -2.618127 4.842505 -2.618127 " transform="matrix(54,0,0,-54,-252.694488,-114.691339)"/>
<path style="fill:none;stroke-width:0.00787402;stroke-linecap:round;stroke-linejoin:miter;stroke:rgb(100%,100%,0%);stroke-opacity:1;stroke-miterlimit:10;" d="M 4.842505 -5.25593 C 4.853356 -5.25593 4.862181 -5.247105 4.862181 -5.236255 " transform="matrix(54,0,0,-54,-252.694488,-114.691339)"/>
<path style="fill:none;stroke-width:0.00787402;stroke-linecap:round;stroke-linejoin:miter;stroke:rgb(100%,100%,0%);stroke-opacity:1;stroke-miterlimit:10;" d="M 4.783477 -5.531466 C 4.783477 -5.596715 4.836356 -5.649594 4.901605 -5.649594 " transform="matrix(54,0,0,-54,-252.694488,-114.691339)"/>
<path style="fill:none;stroke-width:0.00787402;stroke-linecap:round;stroke-linejoin:miter;stroke:rgb(100%,100%,0%);stroke-opacity:1;stroke-miterlimit:10;" d="M 7.027545 -2.342519 C 7.027545 -2.27727 6.974666 -2.224391 6.909418 -2.224391 " transform="matrix(54,0,0,-54,-252.694488,-114.691339)"/>
<path style="fill:none;stroke-width:0.00787402;stroke-linecap:round;stroke-linejoin:miter;stroke:rgb(100%,100%,0%);stroke-opacity:1;stroke-miterlimit:10;" d="M 6.968518 -2.618127 C 6.957667 -2.618127 6.948842 -2.626952 6.948842 -2.637803 " transform="matrix(54,0,0,-54,-252.694488,-114.691339)"/>
<path style="fill:none;stroke-width:0.00787402;stroke-linecap:round;stroke-linejoin:miter;stroke:rgb(100%,100%,0%);stroke-opacity:1;stroke-miterlimit:10;" d="M 6.948842 -5.236255 C 6.948842 -5.247105 6.957667 -5.25593 6.968518 -5.25593 " transform="matrix(54,0,0,-54,-252.694488,-114.691339)"/>
<path style="fill:none;stroke-width:0.00787402;stroke-linecap:round;stroke-linejoin:miter;stroke:rgb(100%,100%,0%);stroke-opacity:1;stroke-miterlimit:10;" d="M 7.027545 -5.275606 C 7.027545 -5.264683 7.01872 -5.25593 7.00787 -5.25593 " transform="matrix(54,0,0,-54,-252.694488,-114.691339)"/>
<path style="fill:none;stroke-width:0.00787402;stroke-linecap:round;stroke-linejoin:miter;stroke:rgb(100%,100%,0%);stroke-opacity:1;stroke-miterlimit:10;" d="M 7.00787 -2.618127 C 7.01872 -2.618127 7.027545 -2.609301 7.027545 -2.598451 " transform="matrix(54,0,0,-54,-252.694488,-114.691339)"/>
<path style="fill:none;stroke-width:0.00787402;stroke-linecap:round;stroke-linejoin:miter;stroke:rgb(100%,100%,0%);stroke-opacity:1;stroke-miterlimit:10;" d="M 6.909418 -5.649594 C 6.974666 -5.649594 7.027545 -5.596715 7.027545 -5.531466 " transform="matrix(54,0,0,-54,-252.694488,-114.691339)"/>
</g>
</svg>
