<?xml version="1.0" encoding="UTF-8"?>
<svg xmlns="http://www.w3.org/2000/svg" xmlns:xlink="http://www.w3.org/1999/xlink" width="196pt" height="157pt" viewBox="0 0 196 157" version="1.1">
<g id="surface1">
<path style="fill:none;stroke-width:0.00551181;stroke-linecap:round;stroke-linejoin:miter;stroke:rgb(0%,100%,0%);stroke-opacity:1;stroke-miterlimit:10;" d="M 0.394011 0.393991 L 3.386126 0.393991 " transform="matrix(54,0,0,-54,-6.80784,139.451295)"/>
<path style="fill:none;stroke-width:0.00551181;stroke-linecap:round;stroke-linejoin:miter;stroke:rgb(0%,100%,0%);stroke-opacity:1;stroke-miterlimit:10;" d="M 3.386126 0.393991 L 3.386126 2.480652 " transform="matrix(54,0,0,-54,-6.80784,139.451295)"/>
<path style="fill:none;stroke-width:0.00551181;stroke-linecap:round;stroke-linejoin:miter;stroke:rgb(0%,100%,0%);stroke-opacity:1;stroke-miterlimit:10;" d="M 3.386126 2.480652 L 0.394011 2.480652 " transform="matrix(54,0,0,-54,-6.80784,139.451295)"/>
<path style="fill:none;stroke-width:0.00551181;stroke-linecap:round;stroke-linejoin:miter;stroke:rgb(0%,100%,0%);stroke-opacity:1;stroke-miterlimit:10;" d="M 0.394011 2.480652 L 0.394011 0.393991 " transform="matrix(54,0,0,-54,-6.80784,139.451295)"/>
<path style="fill:none;stroke-width:0.00787402;stroke-linecap:round;stroke-linejoin:miter;stroke:rgb(100%,0%,0%);stroke-opacity:1;stroke-miterlimit:10;" d="M 4.783445 -2.342532 L 4.783445 -2.342532 " transform="matrix(0.0430016,-53.999983,-53.999983,-0.0430016,-114.80784,409.451295)"/>
<path style="fill:none;stroke-width:0.00787402;stroke-linecap:round;stroke-linejoin:miter;stroke:rgb(100%,0%,0%);stroke-opacity:1;stroke-miterlimit:10;" d="M 4.783445 -2.342532 L 4.783445 -2.342532 " transform="matrix(0.0430016,-53.999983,-53.999983,-0.0430016,-114.80784,409.451295)"/>
<path style="fill:none;stroke-width:0.00787402;stroke-linecap:round;stroke-linejoin:miter;stroke:rgb(100%,0%,0%);stroke-opacity:1;stroke-miterlimit:10;" d="M 4.783431 -2.598391 L 4.783445 -2.342532 " transform="matrix(0.0430016,-53.999983,-53.999983,-0.0430016,-114.80784,409.451295)"/>
<path style="fill:none;stroke-width:0.00787402;stroke-linecap:round;stroke-linejoin:miter;stroke:rgb(100%,0%,0%);stroke-opacity:1;stroke-miterlimit:10;" d="M 4.783431 -2.598391 L 4.783431 -2.598391 " transform="matrix(0.0430016,-53.999983,-53.999983,-0.0430016,-114.80784,409.451295)"/>
<path style="fill:none;stroke-width:0.00787402;stroke-linecap:round;stroke-linejoin:miter;stroke:rgb(100%,0%,0%);stroke-opacity:1;stroke-miterlimit:10;" d="M 4.783431 -2.598391 L 4.783431 -2.598391 " transform="matrix(0.0430016,-53.999983,-53.999983,-0.0430016,-114.80784,409.451295)"/>
<path style="fill:none;stroke-width:0.00787402;stroke-linecap:round;stroke-linejoin:miter;stroke:rgb(100%,0%,0%);stroke-opacity:1;stroke-miterlimit:10;" d="M 4.783466 -5.27562 L 4.783466 -5.27562 " transform="matrix(0.0430016,-53.999983,-53.999983,-0.0430016,-114.80784,409.451295)"/>
<path style="fill:none;stroke-width:0.00787402;stroke-linecap:round;stroke-linejoin:miter;stroke:rgb(100%,0%,0%);stroke-opacity:1;stroke-miterlimit:10;" d="M 4.783466 -5.27562 L 4.783466 -5.27562 " transform="matrix(0.0430016,-53.999983,-53.999983,-0.0430016,-114.80784,409.451295)"/>
<path style="fill:none;stroke-width:0.00787402;stroke-linecap:round;stroke-linejoin:miter;stroke:rgb(100%,0%,0%);stroke-opacity:1;stroke-miterlimit:10;" d="M 4.783452 -5.53148 L 4.783466 -5.27562 " transform="matrix(0.0430016,-53.999983,-53.999983,-0.0430016,-114.80784,409.451295)"/>
<path style="fill:none;stroke-width:0.00787402;stroke-linecap:round;stroke-linejoin:miter;stroke:rgb(100%,0%,0%);stroke-opacity:1;stroke-miterlimit:10;" d="M 4.783452 -5.53148 L 4.783452 -5.53148 " transform="matrix(0.0430016,-53.999983,-53.999983,-0.0430016,-114.80784,409.451295)"/>
<path style="fill:none;stroke-width:0.00787402;stroke-linecap:round;stroke-linejoin:miter;stroke:rgb(100%,0%,0%);stroke-opacity:1;stroke-miterlimit:10;" d="M 4.783452 -5.53148 L 4.783452 -5.53148 " transform="matrix(0.0430016,-53.999983,-53.999983,-0.0430016,-114.80784,409.451295)"/>
<path style="fill:none;stroke-width:0.00787402;stroke-linecap:round;stroke-linejoin:miter;stroke:rgb(100%,0%,0%);stroke-opacity:1;stroke-miterlimit:10;" d="M 4.803123 -2.618124 L 4.803123 -2.618124 " transform="matrix(0.0430016,-53.999983,-53.999983,-0.0430016,-114.80784,409.451295)"/>
<path style="fill:none;stroke-width:0.00787402;stroke-linecap:round;stroke-linejoin:miter;stroke:rgb(100%,0%,0%);stroke-opacity:1;stroke-miterlimit:10;" d="M 4.803123 -2.618124 L 4.803123 -2.618124 " transform="matrix(0.0430016,-53.999983,-53.999983,-0.0430016,-114.80784,409.451295)"/>
<path style="fill:none;stroke-width:0.00787402;stroke-linecap:round;stroke-linejoin:miter;stroke:rgb(100%,0%,0%);stroke-opacity:1;stroke-miterlimit:10;" d="M 4.803126 -5.255928 L 4.803126 -5.255928 " transform="matrix(0.0430016,-53.999983,-53.999983,-0.0430016,-114.80784,409.451295)"/>
<path style="fill:none;stroke-width:0.00787402;stroke-linecap:round;stroke-linejoin:miter;stroke:rgb(100%,0%,0%);stroke-opacity:1;stroke-miterlimit:10;" d="M 4.803126 -5.255928 L 4.803126 -5.255928 " transform="matrix(0.0430016,-53.999983,-53.999983,-0.0430016,-114.80784,409.451295)"/>
<path style="fill:none;stroke-width:0.00787402;stroke-linecap:round;stroke-linejoin:miter;stroke:rgb(100%,0%,0%);stroke-opacity:1;stroke-miterlimit:10;" d="M 4.803126 -5.255928 L 4.84255 -5.255897 " transform="matrix(0.0430016,-53.999983,-53.999983,-0.0430016,-114.80784,409.451295)"/>
<path style="fill:none;stroke-width:0.00787402;stroke-linecap:round;stroke-linejoin:miter;stroke:rgb(100%,0%,0%);stroke-opacity:1;stroke-miterlimit:10;" d="M 4.842547 -2.618092 L 4.803123 -2.618124 " transform="matrix(0.0430016,-53.999983,-53.999983,-0.0430016,-114.80784,409.451295)"/>
<path style="fill:none;stroke-width:0.00787402;stroke-linecap:round;stroke-linejoin:miter;stroke:rgb(100%,0%,0%);stroke-opacity:1;stroke-miterlimit:10;" d="M 4.842547 -2.618092 L 4.842547 -2.618092 " transform="matrix(0.0430016,-53.999983,-53.999983,-0.0430016,-114.80784,409.451295)"/>
<path style="fill:none;stroke-width:0.00787402;stroke-linecap:round;stroke-linejoin:miter;stroke:rgb(100%,0%,0%);stroke-opacity:1;stroke-miterlimit:10;" d="M 4.842547 -2.618092 L 4.842547 -2.618092 " transform="matrix(0.0430016,-53.999983,-53.999983,-0.0430016,-114.80784,409.451295)"/>
<path style="fill:none;stroke-width:0.00787402;stroke-linecap:round;stroke-linejoin:miter;stroke:rgb(100%,0%,0%);stroke-opacity:1;stroke-miterlimit:10;" d="M 4.84255 -5.255897 L 4.84255 -5.255897 " transform="matrix(0.0430016,-53.999983,-53.999983,-0.0430016,-114.80784,409.451295)"/>
<path style="fill:none;stroke-width:0.00787402;stroke-linecap:round;stroke-linejoin:miter;stroke:rgb(100%,0%,0%);stroke-opacity:1;stroke-miterlimit:10;" d="M 4.84255 -5.255897 L 4.84255 -5.255897 " transform="matrix(0.0430016,-53.999983,-53.999983,-0.0430016,-114.80784,409.451295)"/>
<path style="fill:none;stroke-width:0.00787402;stroke-linecap:round;stroke-linejoin:miter;stroke:rgb(100%,0%,0%);stroke-opacity:1;stroke-miterlimit:10;" d="M 4.862239 -2.637825 L 4.862239 -2.637825 " transform="matrix(0.0430016,-53.999983,-53.999983,-0.0430016,-114.80784,409.451295)"/>
<path style="fill:none;stroke-width:0.00787402;stroke-linecap:round;stroke-linejoin:miter;stroke:rgb(100%,0%,0%);stroke-opacity:1;stroke-miterlimit:10;" d="M 4.862239 -2.637825 L 4.862239 -2.637825 " transform="matrix(0.0430016,-53.999983,-53.999983,-0.0430016,-114.80784,409.451295)"/>
<path style="fill:none;stroke-width:0.00787402;stroke-linecap:round;stroke-linejoin:miter;stroke:rgb(100%,0%,0%);stroke-opacity:1;stroke-miterlimit:10;" d="M 4.86221 -5.236205 L 4.862239 -2.637825 " transform="matrix(0.0430016,-53.999983,-53.999983,-0.0430016,-114.80784,409.451295)"/>
<path style="fill:none;stroke-width:0.00787402;stroke-linecap:round;stroke-linejoin:miter;stroke:rgb(100%,0%,0%);stroke-opacity:1;stroke-miterlimit:10;" d="M 4.86221 -5.236205 L 4.86221 -5.236205 " transform="matrix(0.0430016,-53.999983,-53.999983,-0.0430016,-114.80784,409.451295)"/>
<path style="fill:none;stroke-width:0.00787402;stroke-linecap:round;stroke-linejoin:miter;stroke:rgb(100%,0%,0%);stroke-opacity:1;stroke-miterlimit:10;" d="M 4.86221 -5.236205 L 4.86221 -5.236205 " transform="matrix(0.0430016,-53.999983,-53.999983,-0.0430016,-114.80784,409.451295)"/>
<path style="fill:none;stroke-width:0.00787402;stroke-linecap:round;stroke-linejoin:miter;stroke:rgb(100%,0%,0%);stroke-opacity:1;stroke-miterlimit:10;" d="M 4.901551 -2.224382 L 4.901551 -2.224382 " transform="matrix(0.0430016,-53.999983,-53.999983,-0.0430016,-114.80784,409.451295)"/>
<path style="fill:none;stroke-width:0.00787402;stroke-linecap:round;stroke-linejoin:miter;stroke:rgb(100%,0%,0%);stroke-opacity:1;stroke-miterlimit:10;" d="M 4.901551 -2.224382 L 4.901551 -2.224382 " transform="matrix(0.0430016,-53.999983,-53.999983,-0.0430016,-114.80784,409.451295)"/>
<path style="fill:none;stroke-width:0.00787402;stroke-linecap:round;stroke-linejoin:miter;stroke:rgb(100%,0%,0%);stroke-opacity:1;stroke-miterlimit:10;" d="M 4.901551 -2.224382 L 6.909436 -2.224375 " transform="matrix(0.0430016,-53.999983,-53.999983,-0.0430016,-114.80784,409.451295)"/>
<path style="fill:none;stroke-width:0.00787402;stroke-linecap:round;stroke-linejoin:miter;stroke:rgb(100%,0%,0%);stroke-opacity:1;stroke-miterlimit:10;" d="M 4.901602 -5.649586 L 4.901602 -5.649586 " transform="matrix(0.0430016,-53.999983,-53.999983,-0.0430016,-114.80784,409.451295)"/>
<path style="fill:none;stroke-width:0.00787402;stroke-linecap:round;stroke-linejoin:miter;stroke:rgb(100%,0%,0%);stroke-opacity:1;stroke-miterlimit:10;" d="M 4.901602 -5.649586 L 4.901602 -5.649586 " transform="matrix(0.0430016,-53.999983,-53.999983,-0.0430016,-114.80784,409.451295)"/>
<path style="fill:none;stroke-width:0.00787402;stroke-linecap:round;stroke-linejoin:miter;stroke:rgb(100%,0%,0%);stroke-opacity:1;stroke-miterlimit:10;" d="M 6.909436 -2.224375 L 6.909436 -2.224375 " transform="matrix(0.0430016,-53.999983,-53.999983,-0.0430016,-114.80784,409.451295)"/>
<path style="fill:none;stroke-width:0.00787402;stroke-linecap:round;stroke-linejoin:miter;stroke:rgb(100%,0%,0%);stroke-opacity:1;stroke-miterlimit:10;" d="M 6.909436 -2.224375 L 6.909436 -2.224375 " transform="matrix(0.0430016,-53.999983,-53.999983,-0.0430016,-114.80784,409.451295)"/>
<path style="fill:none;stroke-width:0.00787402;stroke-linecap:round;stroke-linejoin:miter;stroke:rgb(100%,0%,0%);stroke-opacity:1;stroke-miterlimit:10;" d="M 6.909415 -5.649578 L 4.901602 -5.649586 " transform="matrix(0.0430016,-53.999983,-53.999983,-0.0430016,-114.80784,409.451295)"/>
<path style="fill:none;stroke-width:0.00787402;stroke-linecap:round;stroke-linejoin:miter;stroke:rgb(100%,0%,0%);stroke-opacity:1;stroke-miterlimit:10;" d="M 6.909415 -5.649578 L 6.909415 -5.649578 " transform="matrix(0.0430016,-53.999983,-53.999983,-0.0430016,-114.80784,409.451295)"/>
<path style="fill:none;stroke-width:0.00787402;stroke-linecap:round;stroke-linejoin:miter;stroke:rgb(100%,0%,0%);stroke-opacity:1;stroke-miterlimit:10;" d="M 6.909415 -5.649578 L 6.909415 -5.649578 " transform="matrix(0.0430016,-53.999983,-53.999983,-0.0430016,-114.80784,409.451295)"/>
<path style="fill:none;stroke-width:0.00787402;stroke-linecap:round;stroke-linejoin:miter;stroke:rgb(100%,0%,0%);stroke-opacity:1;stroke-miterlimit:10;" d="M 6.948828 -2.637827 L 6.948828 -2.637827 " transform="matrix(0.0430016,-53.999983,-53.999983,-0.0430016,-114.80784,409.451295)"/>
<path style="fill:none;stroke-width:0.00787402;stroke-linecap:round;stroke-linejoin:miter;stroke:rgb(100%,0%,0%);stroke-opacity:1;stroke-miterlimit:10;" d="M 6.948828 -2.637827 L 6.948828 -2.637827 " transform="matrix(0.0430016,-53.999983,-53.999983,-0.0430016,-114.80784,409.451295)"/>
<path style="fill:none;stroke-width:0.00787402;stroke-linecap:round;stroke-linejoin:miter;stroke:rgb(100%,0%,0%);stroke-opacity:1;stroke-miterlimit:10;" d="M 6.948828 -2.637827 L 6.948799 -5.236208 " transform="matrix(0.0430016,-53.999983,-53.999983,-0.0430016,-114.80784,409.451295)"/>
<path style="fill:none;stroke-width:0.00787402;stroke-linecap:round;stroke-linejoin:miter;stroke:rgb(100%,0%,0%);stroke-opacity:1;stroke-miterlimit:10;" d="M 6.948799 -5.236208 L 6.948799 -5.236208 " transform="matrix(0.0430016,-53.999983,-53.999983,-0.0430016,-114.80784,409.451295)"/>
<path style="fill:none;stroke-width:0.00787402;stroke-linecap:round;stroke-linejoin:miter;stroke:rgb(100%,0%,0%);stroke-opacity:1;stroke-miterlimit:10;" d="M 6.948799 -5.236208 L 6.948799 -5.236208 " transform="matrix(0.0430016,-53.999983,-53.999983,-0.0430016,-114.80784,409.451295)"/>
<path style="fill:none;stroke-width:0.00787402;stroke-linecap:round;stroke-linejoin:miter;stroke:rgb(100%,0%,0%);stroke-opacity:1;stroke-miterlimit:10;" d="M 6.968488 -2.618136 L 6.968488 -2.618136 " transform="matrix(0.0430016,-53.999983,-53.999983,-0.0430016,-114.80784,409.451295)"/>
<path style="fill:none;stroke-width:0.00787402;stroke-linecap:round;stroke-linejoin:miter;stroke:rgb(100%,0%,0%);stroke-opacity:1;stroke-miterlimit:10;" d="M 6.968488 -2.618136 L 6.968488 -2.618136 " transform="matrix(0.0430016,-53.999983,-53.999983,-0.0430016,-114.80784,409.451295)"/>
<path style="fill:none;stroke-width:0.00787402;stroke-linecap:round;stroke-linejoin:miter;stroke:rgb(100%,0%,0%);stroke-opacity:1;stroke-miterlimit:10;" d="M 6.968491 -5.25594 L 6.968491 -5.25594 " transform="matrix(0.0430016,-53.999983,-53.999983,-0.0430016,-114.80784,409.451295)"/>
<path style="fill:none;stroke-width:0.00787402;stroke-linecap:round;stroke-linejoin:miter;stroke:rgb(100%,0%,0%);stroke-opacity:1;stroke-miterlimit:10;" d="M 6.968491 -5.25594 L 6.968491 -5.25594 " transform="matrix(0.0430016,-53.999983,-53.999983,-0.0430016,-114.80784,409.451295)"/>
<path style="fill:none;stroke-width:0.00787402;stroke-linecap:round;stroke-linejoin:miter;stroke:rgb(100%,0%,0%);stroke-opacity:1;stroke-miterlimit:10;" d="M 6.968491 -5.25594 L 7.007843 -5.255909 " transform="matrix(0.0430016,-53.999983,-53.999983,-0.0430016,-114.80784,409.451295)"/>
<path style="fill:none;stroke-width:0.00787402;stroke-linecap:round;stroke-linejoin:miter;stroke:rgb(100%,0%,0%);stroke-opacity:1;stroke-miterlimit:10;" d="M 7.00784 -2.618104 L 6.968488 -2.618136 " transform="matrix(0.0430016,-53.999983,-53.999983,-0.0430016,-114.80784,409.451295)"/>
<path style="fill:none;stroke-width:0.00787402;stroke-linecap:round;stroke-linejoin:miter;stroke:rgb(100%,0%,0%);stroke-opacity:1;stroke-miterlimit:10;" d="M 7.00784 -2.618104 L 7.00784 -2.618104 " transform="matrix(0.0430016,-53.999983,-53.999983,-0.0430016,-114.80784,409.451295)"/>
<path style="fill:none;stroke-width:0.00787402;stroke-linecap:round;stroke-linejoin:miter;stroke:rgb(100%,0%,0%);stroke-opacity:1;stroke-miterlimit:10;" d="M 7.00784 -2.618104 L 7.00784 -2.618104 " transform="matrix(0.0430016,-53.999983,-53.999983,-0.0430016,-114.80784,409.451295)"/>
<path style="fill:none;stroke-width:0.00787402;stroke-linecap:round;stroke-linejoin:miter;stroke:rgb(100%,0%,0%);stroke-opacity:1;stroke-miterlimit:10;" d="M 7.007843 -5.255909 L 7.007843 -5.255909 " transform="matrix(0.0430016,-53.999983,-53.999983,-0.0430016,-114.80784,409.451295)"/>
<path style="fill:none;stroke-width:0.00787402;stroke-linecap:round;stroke-linejoin:miter;stroke:rgb(100%,0%,0%);stroke-opacity:1;stroke-miterlimit:10;" d="M 7.007843 -5.255909 L 7.007843 -5.255909 " transform="matrix(0.0430016,-53.999983,-53.999983,-0.0430016,-114.80784,409.451295)"/>
<path style="fill:none;stroke-width:0.00787402;stroke-linecap:round;stroke-linejoin:miter;stroke:rgb(100%,0%,0%);stroke-opacity:1;stroke-miterlimit:10;" d="M 7.027586 -2.342553 L 7.027586 -2.342553 " transform="matrix(0.0430016,-53.999983,-53.999983,-0.0430016,-114.80784,409.451295)"/>
<path style="fill:none;stroke-width:0.00787402;stroke-linecap:round;stroke-linejoin:miter;stroke:rgb(100%,0%,0%);stroke-opacity:1;stroke-miterlimit:10;" d="M 7.027586 -2.342553 L 7.027586 -2.342553 " transform="matrix(0.0430016,-53.999983,-53.999983,-0.0430016,-114.80784,409.451295)"/>
<path style="fill:none;stroke-width:0.00787402;stroke-linecap:round;stroke-linejoin:miter;stroke:rgb(100%,0%,0%);stroke-opacity:1;stroke-miterlimit:10;" d="M 7.027586 -2.342553 L 7.027573 -2.598413 " transform="matrix(0.0430016,-53.999983,-53.999983,-0.0430016,-114.80784,409.451295)"/>
<path style="fill:none;stroke-width:0.00787402;stroke-linecap:round;stroke-linejoin:miter;stroke:rgb(100%,0%,0%);stroke-opacity:1;stroke-miterlimit:10;" d="M 7.027573 -2.598413 L 7.027573 -2.598413 " transform="matrix(0.0430016,-53.999983,-53.999983,-0.0430016,-114.80784,409.451295)"/>
<path style="fill:none;stroke-width:0.00787402;stroke-linecap:round;stroke-linejoin:miter;stroke:rgb(100%,0%,0%);stroke-opacity:1;stroke-miterlimit:10;" d="M 7.027573 -2.598413 L 7.027573 -2.598413 " transform="matrix(0.0430016,-53.999983,-53.999983,-0.0430016,-114.80784,409.451295)"/>
<path style="fill:none;stroke-width:0.00787402;stroke-linecap:round;stroke-linejoin:miter;stroke:rgb(100%,0%,0%);stroke-opacity:1;stroke-miterlimit:10;" d="M 7.027535 -5.275569 L 7.027535 -5.275569 " transform="matrix(0.0430016,-53.999983,-53.999983,-0.0430016,-114.80784,409.451295)"/>
<path style="fill:none;stroke-width:0.00787402;stroke-linecap:round;stroke-linejoin:miter;stroke:rgb(100%,0%,0%);stroke-opacity:1;stroke-miterlimit:10;" d="M 7.027535 -5.275569 L 7.027535 -5.275569 " transform="matrix(0.0430016,-53.999983,-53.999983,-0.0430016,-114.80784,409.451295)"/>
<path style="fill:none;stroke-width:0.00787402;stroke-linecap:round;stroke-linejoin:miter;stroke:rgb(100%,0%,0%);stroke-opacity:1;stroke-miterlimit:10;" d="M 7.027535 -5.275569 L 7.027594 -5.531501 " transform="matrix(0.0430016,-53.999983,-53.999983,-0.0430016,-114.80784,409.451295)"/>
<path style="fill:none;stroke-width:0.00787402;stroke-linecap:round;stroke-linejoin:miter;stroke:rgb(100%,0%,0%);stroke-opacity:1;stroke-miterlimit:10;" d="M 7.027594 -5.531501 L 7.027594 -5.531501 " transform="matrix(0.0430016,-53.999983,-53.999983,-0.0430016,-114.80784,409.451295)"/>
<path style="fill:none;stroke-width:0.00787402;stroke-linecap:round;stroke-linejoin:miter;stroke:rgb(100%,0%,0%);stroke-opacity:1;stroke-miterlimit:10;" d="M 7.027594 -5.531501 L 7.027594 -5.531501 " transform="matrix(0.0430016,-53.999983,-53.999983,-0.0430016,-114.80784,409.451295)"/>
<path style="fill:none;stroke-width:0.00787402;stroke-linecap:round;stroke-linejoin:miter;stroke:rgb(100%,0%,0%);stroke-opacity:1;stroke-miterlimit:10;" d="M 4.901551 -2.224382 C 4.836374 -2.224434 4.783465 -2.277283 4.783445 -2.342532 " transform="matrix(0.0430016,-53.999983,-53.999983,-0.0430016,-114.80784,409.451295)"/>
<path style="fill:none;stroke-width:0.00787402;stroke-linecap:round;stroke-linejoin:miter;stroke:rgb(100%,0%,0%);stroke-opacity:1;stroke-miterlimit:10;" d="M 4.803126 -5.255928 C 4.792275 -5.255937 4.783457 -5.264697 4.783466 -5.27562 " transform="matrix(0.0430016,-53.999983,-53.999983,-0.0430016,-114.80784,409.451295)"/>
<path style="fill:none;stroke-width:0.00787402;stroke-linecap:round;stroke-linejoin:miter;stroke:rgb(100%,0%,0%);stroke-opacity:1;stroke-miterlimit:10;" d="M 4.783431 -2.598391 C 4.78344 -2.609314 4.792272 -2.618132 4.803123 -2.618124 " transform="matrix(0.0430016,-53.999983,-53.999983,-0.0430016,-114.80784,409.451295)"/>
<path style="fill:none;stroke-width:0.00787402;stroke-linecap:round;stroke-linejoin:miter;stroke:rgb(100%,0%,0%);stroke-opacity:1;stroke-miterlimit:10;" d="M 4.862239 -2.637825 C 4.86223 -2.626902 4.853398 -2.618084 4.842547 -2.618092 " transform="matrix(0.0430016,-53.999983,-53.999983,-0.0430016,-114.80784,409.451295)"/>
<path style="fill:none;stroke-width:0.00787402;stroke-linecap:round;stroke-linejoin:miter;stroke:rgb(100%,0%,0%);stroke-opacity:1;stroke-miterlimit:10;" d="M 4.84255 -5.255897 C 4.853401 -5.255888 4.862219 -5.247056 4.86221 -5.236205 " transform="matrix(0.0430016,-53.999983,-53.999983,-0.0430016,-114.80784,409.451295)"/>
<path style="fill:none;stroke-width:0.00787402;stroke-linecap:round;stroke-linejoin:miter;stroke:rgb(100%,0%,0%);stroke-opacity:1;stroke-miterlimit:10;" d="M 4.783452 -5.53148 C 4.783432 -5.596728 4.836353 -5.649638 4.901602 -5.649586 " transform="matrix(0.0430016,-53.999983,-53.999983,-0.0430016,-114.80784,409.451295)"/>
<path style="fill:none;stroke-width:0.00787402;stroke-linecap:round;stroke-linejoin:miter;stroke:rgb(100%,0%,0%);stroke-opacity:1;stroke-miterlimit:10;" d="M 7.027586 -2.342553 C 7.027534 -2.277304 6.974685 -2.224395 6.909436 -2.224375 " transform="matrix(0.0430016,-53.999983,-53.999983,-0.0430016,-114.80784,409.451295)"/>
<path style="fill:none;stroke-width:0.00787402;stroke-linecap:round;stroke-linejoin:miter;stroke:rgb(100%,0%,0%);stroke-opacity:1;stroke-miterlimit:10;" d="M 6.968488 -2.618136 C 6.957638 -2.618144 6.948819 -2.626904 6.948828 -2.637827 " transform="matrix(0.0430016,-53.999983,-53.999983,-0.0430016,-114.80784,409.451295)"/>
<path style="fill:none;stroke-width:0.00787402;stroke-linecap:round;stroke-linejoin:miter;stroke:rgb(100%,0%,0%);stroke-opacity:1;stroke-miterlimit:10;" d="M 6.948799 -5.236208 C 6.948808 -5.247058 6.95764 -5.255877 6.968491 -5.25594 " transform="matrix(0.0430016,-53.999983,-53.999983,-0.0430016,-114.80784,409.451295)"/>
<path style="fill:none;stroke-width:0.00787402;stroke-linecap:round;stroke-linejoin:miter;stroke:rgb(100%,0%,0%);stroke-opacity:1;stroke-miterlimit:10;" d="M 7.027535 -5.275569 C 7.027526 -5.264718 7.018766 -5.2559 7.007843 -5.255909 " transform="matrix(0.0430016,-53.999983,-53.999983,-0.0430016,-114.80784,409.451295)"/>
<path style="fill:none;stroke-width:0.00787402;stroke-linecap:round;stroke-linejoin:miter;stroke:rgb(100%,0%,0%);stroke-opacity:1;stroke-miterlimit:10;" d="M 7.00784 -2.618104 C 7.018763 -2.618096 7.027581 -2.609263 7.027573 -2.598413 " transform="matrix(0.0430016,-53.999983,-53.999983,-0.0430016,-114.80784,409.451295)"/>
<path style="fill:none;stroke-width:0.00787402;stroke-linecap:round;stroke-linejoin:miter;stroke:rgb(100%,0%,0%);stroke-opacity:1;stroke-miterlimit:10;" d="M 6.909415 -5.649578 C 6.974664 -5.649599 7.027573 -5.59675 7.027594 -5.531501 " transform="matrix(0.0430016,-53.999983,-53.999983,-0.0430016,-114.80784,409.451295)"/>
</g>
</svg>
